# xmcd
#
# Track frame offsets:
#	150
#	16205
#	29524
#	45129
#	63760
#	77757
#	95829
#	113439
#	130154
#	141164
#	157495
#	168972
#	181153
#	194664
#	211225
#	225825
#	237781
#	248685
#
# Disc length: 3494
#
# Revision: 2
# Processed by: cddbd v1.5.1PL0 Copyright (c) Steve Scherf et al.
# Submitted via: CDex 1.51
# Normalized: r0:TDELIM( - ),TSWAP
#
DISCID=e20da412
DTITLE=Country Moods and Memories - Disc 2
DYEAR=1900
DGENRE=Country
TTITLE0=Willie Nelson - Always On My Mind
TTITLE1=Charlie Rich - Behind Closed Doors
TTITLE2=The Statler Brothers - Elizabeth
TTITLE3=Don Williams - [ReI Believe In You
TTITLE4=Barbara Mandrell - (If Loving You Is Wrong) I Don't Want To Be Right
TTITLE5=Vince Gill - I Still Believe In You
TTITLE6=Kenny Rogers - Lady
TTITLE7=Gary Morris - I'll Never Stop Loving You
TTITLE8=Marty Robbins - It Had To Be You
TTITLE9=Crystal Gayle - Stardust
TTITLE10=Willie Nelson - Mona Lisa
TTITLE11=Patsy Cline - Always
TTITLE12=Bobby Helms - My Special Angel
TTITLE13=Ray Price - Spanish Eyes
TTITLE14=Freddy Fender - Roses Are Red (My Love)
TTITLE15=Kenny Rogers - Love Is A Many-Splendored Thing
TTITLE16=Charlie Rich - Unchained Melody
TTITLE17=Eddy Arnold - I Only Have Eyes For You
EXTD=
EXTT0=
EXTT1=
EXTT2=
EXTT3=
EXTT4=
EXTT5=
EXTT6=
EXTT7=
EXTT8=
EXTT9=
EXTT10=
EXTT11=
EXTT12=
EXTT13=
EXTT14=
EXTT15=
EXTT16=
EXTT17=
PLAYORDER=
